<svg width="243" height="149" viewBox="0 0 243 149" fill="none" xmlns="http://www.w3.org/2000/svg">
<path d="M10.2 5.72V34H3.36V5.72H10.2ZM19.6425 0.319997C20.1492 1.84 20.4025 3.41333 20.4025 5.04C20.4025 6.88 19.9225 8.36 18.9625 9.48C18.0292 10.5733 16.6558 11.12 14.8425 11.12V8.56C16.2292 8.56 16.9225 7.66667 16.9225 5.88V5.24H14.4025V0.319997H19.6425ZM53.4909 11.44C56.2376 11.44 58.3976 12.2933 59.9709 14C61.5443 15.68 62.3309 18.0267 62.3309 21.04V34H55.5309V21.84C55.5309 20.4267 55.1443 19.3333 54.3709 18.56C53.6243 17.76 52.5976 17.36 51.2909 17.36C49.9309 17.36 48.8509 17.7867 48.0509 18.64C47.2776 19.4667 46.8909 20.64 46.8909 22.16V34H40.0509V21.84C40.0509 20.4267 39.6776 19.3333 38.9309 18.56C38.1843 17.76 37.1576 17.36 35.8509 17.36C34.4909 17.36 33.4109 17.7733 32.6109 18.6C31.8109 19.4267 31.4109 20.6133 31.4109 22.16V34H24.5709V11.68H31.4109V15.48C31.9976 14.2267 32.8909 13.24 34.0909 12.52C35.3176 11.8 36.7443 11.44 38.3709 11.44C40.0776 11.44 41.5843 11.84 42.8909 12.64C44.1976 13.4133 45.1843 14.5333 45.8509 16C46.6243 14.6133 47.6776 13.5067 49.0109 12.68C50.3709 11.8533 51.8643 11.44 53.4909 11.44ZM106.683 5.92V34H99.8434V16.44L93.7634 34H87.8434L81.7234 16.4V34H74.8834V5.92H83.2434L90.8834 25.48L98.3634 5.92H106.683ZM119.887 11.4C121.594 11.4 123.06 11.7867 124.287 12.56C125.514 13.3333 126.42 14.3867 127.007 15.72V11.68H133.807V34H127.007V29.96C126.42 31.2933 125.514 32.3467 124.287 33.12C123.06 33.8933 121.594 34.28 119.887 34.28C118.047 34.28 116.394 33.8267 114.927 32.92C113.487 31.9867 112.34 30.6533 111.487 28.92C110.66 27.1867 110.247 25.16 110.247 22.84C110.247 20.4933 110.66 18.4667 111.487 16.76C112.34 15.0267 113.487 13.7067 114.927 12.8C116.394 11.8667 118.047 11.4 119.887 11.4ZM122.087 17.4C120.62 17.4 119.434 17.88 118.527 18.84C117.647 19.8 117.207 21.1333 117.207 22.84C117.207 24.5467 117.647 25.88 118.527 26.84C119.434 27.8 120.62 28.28 122.087 28.28C123.527 28.28 124.7 27.7867 125.607 26.8C126.54 25.8133 127.007 24.4933 127.007 22.84C127.007 21.16 126.54 19.84 125.607 18.88C124.7 17.8933 123.527 17.4 122.087 17.4ZM145.356 15.88C146.21 14.52 147.303 13.44 148.636 12.64C149.996 11.84 151.463 11.44 153.036 11.44V18.76H151.076C149.263 18.76 147.85 19.1467 146.836 19.92C145.85 20.6933 145.356 22 145.356 23.84V34H138.516V11.68H145.356V15.88ZM155.259 5.4C155.259 4.36 155.632 3.50667 156.379 2.84C157.126 2.14666 158.112 1.8 159.339 1.8C160.566 1.8 161.552 2.14666 162.299 2.84C163.046 3.50667 163.419 4.36 163.419 5.4C163.419 6.41333 163.046 7.26667 162.299 7.96C161.552 8.62667 160.566 8.96 159.339 8.96C158.112 8.96 157.126 8.62667 156.379 7.96C155.632 7.26667 155.259 6.41333 155.259 5.4ZM162.739 11.68V34H155.899V11.68H162.739ZM175.942 11.4C177.648 11.4 179.115 11.7867 180.342 12.56C181.568 13.3333 182.475 14.3867 183.062 15.72V11.68H189.862V34H183.062V29.96C182.475 31.2933 181.568 32.3467 180.342 33.12C179.115 33.8933 177.648 34.28 175.942 34.28C174.102 34.28 172.448 33.8267 170.982 32.92C169.542 31.9867 168.395 30.6533 167.542 28.92C166.715 27.1867 166.302 25.16 166.302 22.84C166.302 20.4933 166.715 18.4667 167.542 16.76C168.395 15.0267 169.542 13.7067 170.982 12.8C172.448 11.8667 174.102 11.4 175.942 11.4ZM178.142 17.4C176.675 17.4 175.488 17.88 174.582 18.84C173.702 19.8 173.262 21.1333 173.262 22.84C173.262 24.5467 173.702 25.88 174.582 26.84C175.488 27.8 176.675 28.28 178.142 28.28C179.582 28.28 180.755 27.7867 181.662 26.8C182.595 25.8133 183.062 24.4933 183.062 22.84C183.062 21.16 182.595 19.84 181.662 18.88C180.755 17.8933 179.582 17.4 178.142 17.4ZM208.731 11.44C211.291 11.44 213.318 12.2933 214.811 14C216.331 15.7067 217.091 18.0533 217.091 21.04V34H210.251V21.84C210.251 20.3467 209.851 19.1867 209.051 18.36C208.278 17.5067 207.238 17.08 205.931 17.08C204.544 17.08 203.438 17.52 202.611 18.4C201.811 19.28 201.411 20.5333 201.411 22.16V34H194.571V11.68H201.411V15.76C202.051 14.4267 202.998 13.3733 204.251 12.6C205.531 11.8267 207.024 11.44 208.731 11.44ZM242.802 22.24C242.802 22.8 242.736 23.4133 242.602 24.08H227.122C227.202 25.76 227.629 26.9733 228.402 27.72C229.176 28.44 230.162 28.8 231.362 28.8C232.376 28.8 233.216 28.5467 233.882 28.04C234.549 27.5333 234.989 26.88 235.202 26.08H242.442C242.149 27.6533 241.509 29.0667 240.522 30.32C239.536 31.5467 238.282 32.52 236.762 33.24C235.242 33.9333 233.549 34.28 231.682 34.28C229.496 34.28 227.549 33.8267 225.842 32.92C224.162 31.9867 222.842 30.6533 221.882 28.92C220.922 27.1867 220.442 25.16 220.442 22.84C220.442 20.4933 220.909 18.4667 221.842 16.76C222.802 15.0267 224.136 13.7067 225.842 12.8C227.549 11.8667 229.496 11.4 231.682 11.4C233.896 11.4 235.842 11.8533 237.522 12.76C239.202 13.6667 240.496 14.9467 241.402 16.6C242.336 18.2267 242.802 20.1067 242.802 22.24ZM235.882 21.2C235.909 19.7333 235.509 18.64 234.682 17.92C233.882 17.1733 232.882 16.8 231.682 16.8C230.429 16.8 229.389 17.1733 228.562 17.92C227.736 18.6667 227.269 19.76 227.162 21.2H235.882ZM16.6 57.44C20.1467 57.44 23.0667 58.3067 25.36 60.04C27.6533 61.7733 29.08 64.12 29.64 67.08H22.4C21.92 66.0667 21.1867 65.2667 20.2 64.68C19.2133 64.0667 18.0267 63.76 16.64 63.76C14.48 63.76 12.7467 64.4933 11.44 65.96C10.1333 67.4 9.48 69.36 9.48 71.84C9.48 74.5333 10.16 76.6 11.52 78.04C12.9067 79.48 14.8667 80.2 17.4 80.2C19.0267 80.2 20.4533 79.76 21.68 78.88C22.9067 77.9733 23.7733 76.6933 24.28 75.04H15.64V70.12H30V76.88C29.4667 78.5333 28.6133 80.0667 27.44 81.48C26.2667 82.8933 24.76 84.04 22.92 84.92C21.1067 85.8 19.0267 86.24 16.68 86.24C13.8267 86.24 11.3333 85.64 9.2 84.44C7.06667 83.2133 5.41333 81.5067 4.24 79.32C3.09333 77.1333 2.52 74.64 2.52 71.84C2.52 69.04 3.09333 66.5467 4.24 64.36C5.41333 62.1733 7.05333 60.48 9.16 59.28C11.2933 58.0533 13.7733 57.44 16.6 57.44ZM40.6688 56.4V86H33.8288V56.4H40.6688ZM53.8713 63.4C55.5779 63.4 57.0446 63.7867 58.2713 64.56C59.4979 65.3333 60.4046 66.3867 60.9913 67.72V63.68H67.7913V86H60.9913V81.96C60.4046 83.2933 59.4979 84.3467 58.2713 85.12C57.0446 85.8933 55.5779 86.28 53.8713 86.28C52.0313 86.28 50.3779 85.8267 48.9112 84.92C47.4713 83.9867 46.3246 82.6533 45.4713 80.92C44.6446 79.1867 44.2313 77.16 44.2313 74.84C44.2313 72.4933 44.6446 70.4667 45.4713 68.76C46.3246 67.0267 47.4713 65.7067 48.9112 64.8C50.3779 63.8667 52.0313 63.4 53.8713 63.4ZM56.0713 69.4C54.6046 69.4 53.4179 69.88 52.5113 70.84C51.6313 71.8 51.1913 73.1333 51.1913 74.84C51.1913 76.5467 51.6313 77.88 52.5113 78.84C53.4179 79.8 54.6046 80.28 56.0713 80.28C57.5113 80.28 58.6846 79.7867 59.5913 78.8C60.5246 77.8133 60.9913 76.4933 60.9913 74.84C60.9913 73.16 60.5246 71.84 59.5913 70.88C58.6846 69.8933 57.5113 69.4 56.0713 69.4ZM80.9806 63.4C82.6873 63.4 84.154 63.7867 85.3806 64.56C86.6073 65.3333 87.5006 66.3867 88.0606 67.72V56.4H94.9006V86H88.0606V81.96C87.5006 83.2933 86.6073 84.3467 85.3806 85.12C84.154 85.8933 82.6873 86.28 80.9806 86.28C79.1406 86.28 77.4873 85.8267 76.0206 84.92C74.5806 83.9867 73.434 82.6533 72.5806 80.92C71.754 79.1867 71.3406 77.16 71.3406 74.84C71.3406 72.4933 71.754 70.4667 72.5806 68.76C73.434 67.0267 74.5806 65.7067 76.0206 64.8C77.4873 63.8667 79.1406 63.4 80.9806 63.4ZM83.1806 69.4C81.714 69.4 80.5273 69.88 79.6206 70.84C78.7406 71.8 78.3006 73.1333 78.3006 74.84C78.3006 76.5467 78.7406 77.88 79.6206 78.84C80.5273 79.8 81.714 80.28 83.1806 80.28C84.6206 80.28 85.794 79.7867 86.7006 78.8C87.634 77.8133 88.1006 76.4933 88.1006 74.84C88.1006 73.16 87.634 71.84 86.7006 70.88C85.794 69.8933 84.6206 69.4 83.1806 69.4ZM120.258 80.12V86H117.178C114.564 86 112.524 85.36 111.058 84.08C109.618 82.7733 108.898 80.6267 108.898 77.64V69.44H105.898V63.68H108.898V58.2H115.738V63.68H120.218V69.44H115.738V77.76C115.738 78.64 115.911 79.2533 116.258 79.6C116.631 79.9467 117.244 80.12 118.098 80.12H120.258ZM134.542 63.4C136.756 63.4 138.729 63.8667 140.462 64.8C142.222 65.7067 143.596 67.0267 144.582 68.76C145.596 70.4933 146.102 72.52 146.102 74.84C146.102 77.16 145.596 79.1867 144.582 80.92C143.596 82.6533 142.222 83.9867 140.462 84.92C138.729 85.8267 136.756 86.28 134.542 86.28C132.329 86.28 130.342 85.8267 128.582 84.92C126.822 83.9867 125.436 82.6533 124.422 80.92C123.436 79.1867 122.942 77.16 122.942 74.84C122.942 72.52 123.436 70.4933 124.422 68.76C125.436 67.0267 126.822 65.7067 128.582 64.8C130.342 63.8667 132.329 63.4 134.542 63.4ZM134.542 69.32C133.236 69.32 132.129 69.8 131.222 70.76C130.342 71.6933 129.902 73.0533 129.902 74.84C129.902 76.6267 130.342 77.9867 131.222 78.92C132.129 79.8533 133.236 80.32 134.542 80.32C135.849 80.32 136.942 79.8533 137.822 78.92C138.702 77.9867 139.142 76.6267 139.142 74.84C139.142 73.0533 138.702 71.6933 137.822 70.76C136.942 69.8 135.849 69.32 134.542 69.32ZM165.777 63.4C168.604 63.4 170.857 64.1067 172.537 65.52C174.244 66.9333 175.31 68.8 175.737 71.12H169.337C169.15 70.2133 168.724 69.5067 168.057 69C167.417 68.4667 166.604 68.2 165.617 68.2C164.844 68.2 164.257 68.3733 163.857 68.72C163.457 69.04 163.257 69.5067 163.257 70.12C163.257 70.8133 163.617 71.3333 164.337 71.68C165.084 72.0267 166.244 72.3733 167.817 72.72C169.524 73.12 170.924 73.5333 172.017 73.96C173.11 74.36 174.057 75.0267 174.857 75.96C175.657 76.8933 176.057 78.1467 176.057 79.72C176.057 81 175.71 82.1333 175.017 83.12C174.324 84.1067 173.324 84.88 172.017 85.44C170.71 86 169.164 86.28 167.377 86.28C164.364 86.28 161.95 85.6133 160.137 84.28C158.324 82.9467 157.217 81.04 156.817 78.56H163.417C163.524 79.52 163.924 80.2533 164.617 80.76C165.337 81.2667 166.257 81.52 167.377 81.52C168.15 81.52 168.737 81.3467 169.137 81C169.537 80.6267 169.737 80.1467 169.737 79.56C169.737 78.7867 169.364 78.24 168.617 77.92C167.897 77.5733 166.71 77.2133 165.057 76.84C163.404 76.4933 162.044 76.12 160.977 75.72C159.91 75.32 158.99 74.68 158.217 73.8C157.444 72.8933 157.057 71.6667 157.057 70.12C157.057 68.12 157.817 66.5067 159.337 65.28C160.857 64.0267 163.004 63.4 165.777 63.4ZM201.044 74.24C201.044 74.8 200.978 75.4133 200.844 76.08H185.364C185.444 77.76 185.871 78.9733 186.644 79.72C187.418 80.44 188.404 80.8 189.604 80.8C190.618 80.8 191.458 80.5467 192.124 80.04C192.791 79.5333 193.231 78.88 193.444 78.08H200.684C200.391 79.6533 199.751 81.0667 198.764 82.32C197.778 83.5467 196.524 84.52 195.004 85.24C193.484 85.9333 191.791 86.28 189.924 86.28C187.738 86.28 185.791 85.8267 184.084 84.92C182.404 83.9867 181.084 82.6533 180.124 80.92C179.164 79.1867 178.684 77.16 178.684 74.84C178.684 72.4933 179.151 70.4667 180.084 68.76C181.044 67.0267 182.378 65.7067 184.084 64.8C185.791 63.8667 187.738 63.4 189.924 63.4C192.138 63.4 194.084 63.8533 195.764 64.76C197.444 65.6667 198.738 66.9467 199.644 68.6C200.578 70.2267 201.044 72.1067 201.044 74.24ZM194.124 73.2C194.151 71.7333 193.751 70.64 192.924 69.92C192.124 69.1733 191.124 68.8 189.924 68.8C188.671 68.8 187.631 69.1733 186.804 69.92C185.978 70.6667 185.511 71.76 185.404 73.2H194.124ZM225.81 74.24C225.81 74.8 225.743 75.4133 225.61 76.08H210.13C210.21 77.76 210.637 78.9733 211.41 79.72C212.183 80.44 213.17 80.8 214.37 80.8C215.383 80.8 216.223 80.5467 216.89 80.04C217.557 79.5333 217.997 78.88 218.21 78.08H225.45C225.157 79.6533 224.517 81.0667 223.53 82.32C222.543 83.5467 221.29 84.52 219.77 85.24C218.25 85.9333 216.557 86.28 214.69 86.28C212.503 86.28 210.557 85.8267 208.85 84.92C207.17 83.9867 205.85 82.6533 204.89 80.92C203.93 79.1867 203.45 77.16 203.45 74.84C203.45 72.4933 203.917 70.4667 204.85 68.76C205.81 67.0267 207.143 65.7067 208.85 64.8C210.557 63.8667 212.503 63.4 214.69 63.4C216.903 63.4 218.85 63.8533 220.53 64.76C222.21 65.6667 223.503 66.9467 224.41 68.6C225.343 70.2267 225.81 72.1067 225.81 74.24ZM218.89 73.2C218.917 71.7333 218.517 70.64 217.69 69.92C216.89 69.1733 215.89 68.8 214.69 68.8C213.437 68.8 212.397 69.1733 211.57 69.92C210.743 70.6667 210.277 71.76 210.17 73.2H218.89ZM8.52 115.68L13.88 129.36L18.88 115.68H26.44L12.52 148.64H5L10.24 137.16L0.88 115.68H8.52ZM39.1516 115.4C41.3649 115.4 43.3382 115.867 45.0716 116.8C46.8316 117.707 48.2049 119.027 49.1916 120.76C50.2049 122.493 50.7116 124.52 50.7116 126.84C50.7116 129.16 50.2049 131.187 49.1916 132.92C48.2049 134.653 46.8316 135.987 45.0716 136.92C43.3382 137.827 41.3649 138.28 39.1516 138.28C36.9382 138.28 34.9516 137.827 33.1916 136.92C31.4316 135.987 30.0449 134.653 29.0316 132.92C28.0449 131.187 27.5516 129.16 27.5516 126.84C27.5516 124.52 28.0449 122.493 29.0316 120.76C30.0449 119.027 31.4316 117.707 33.1916 116.8C34.9516 115.867 36.9382 115.4 39.1516 115.4ZM39.1516 121.32C37.8449 121.32 36.7382 121.8 35.8316 122.76C34.9516 123.693 34.5116 125.053 34.5116 126.84C34.5116 128.627 34.9516 129.987 35.8316 130.92C36.7382 131.853 37.8449 132.32 39.1516 132.32C40.4582 132.32 41.5516 131.853 42.4316 130.92C43.3116 129.987 43.7516 128.627 43.7516 126.84C43.7516 125.053 43.3116 123.693 42.4316 122.76C41.5516 121.8 40.4582 121.32 39.1516 121.32ZM76.4584 115.68V138H69.5784V133.96C68.9384 135.267 67.9784 136.307 66.6984 137.08C65.4451 137.853 63.9784 138.24 62.2984 138.24C59.7384 138.24 57.6984 137.387 56.1784 135.68C54.6851 133.973 53.9384 131.627 53.9384 128.64V115.68H60.7384V127.8C60.7384 129.32 61.1251 130.507 61.8984 131.36C62.6984 132.187 63.7651 132.6 65.0984 132.6C66.4851 132.6 67.5784 132.16 68.3784 131.28C69.1784 130.4 69.5784 129.147 69.5784 127.52V115.68H76.4584ZM90.5325 108.32L89.6925 127.88H83.8925L83.0525 108.32H90.5325ZM90.3725 131.16V138H83.2525V131.16H90.3725Z" fill="#172B4D"/>
</svg>
